<?xml version="1.0" encoding="UTF-8"?>
<svg id="Layer_1" data-name="Layer 1" xmlns="http://www.w3.org/2000/svg" version="1.1" viewBox="0 0 1080 1080">
  <defs>
    <style>
      .cls-1, .cls-2 {
        stroke: #102c57;
      }

      .cls-1, .cls-2, .cls-3 {
        stroke-miterlimit: 10;
      }

      .cls-1, .cls-4 {
        fill: #102c57;
      }

      .cls-2 {
        fill: none;
      }

      .cls-4, .cls-5, .cls-6, .cls-7 {
        stroke-width: 0px;
      }

      .cls-3 {
        stroke: #eadbc8;
      }

      .cls-3, .cls-5 {
        fill: #eadbc8;
      }

      .cls-6 {
        fill: #e8d2ba;
      }

      .cls-7 {
        fill: #e5cbaa;
      }
    </style>
  </defs>
  <path class="cls-4" d="M759.7,620.6c-10.1,35.6-26.4,61.4-37.8,76.6-6.2-6.4-12.4-12.8-18.5-19.2,10.2-13.7,24.6-36.6,33.4-68.1,6.9-25.1,7.9-47.1,7.3-62.5,7.8-5.4,15.6-10.9,23.4-16.3,2,19.5,2.9,51.8-7.7,89.5Z"/>
  <path class="cls-4" d="M642.9,623c4.1-3,8.2-5.9,12.3-8.9-.8,1.8-1.9,4.7-2.1,8.4-.4,5.3,1.1,9.4,2.1,11.5l-12.3-11Z"/>
  <path class="cls-4" d="M592.6,658.5l10.8-6.2c3,3,5.9,5.9,8.9,8.9-2.4-.8-5.2-1.6-8.4-2.1-4.4-.7-8.2-.8-11.3-.6Z"/>
  <path class="cls-4" d="M709,747.9c1.4,3.2,3.3,8.6,3.4,15.6.2,6.9-1.4,12.4-2.6,15.6,6.1-4.6,12.1-9.1,18.2-13.7l-19-17.5Z"/>
  <path class="cls-4" d="M770.9,718.4l-9.8,12.8-16.6-14.4c3.2,1.2,7.9,2.5,13.8,2.8,5.1.2,9.4-.5,12.5-1.2Z"/>
  <polygon class="cls-4" points="641.4 621.2 766 735.2 730.8 770.6 599.1 649.3 641.4 621.2"/>
  <path class="cls-4" d="M642,520.3l63.3-45.5c-11.8,3.8-31,8.4-54.7,7.2-20.8-1-37.4-6.1-48.3-10.4,13.2,16.2,26.4,32.5,39.7,48.7Z"/>
  <path class="cls-4" d="M658.2,350.1"/>
  <path class="cls-4" d="M411.8,523.4"/>
  <path class="cls-4" d="M723.3,463.2l17.4-12.9c1.4-1,1.8-2.9.8-4.4-9-14.6-22.7-33.2-42.7-51.5-18.1-16.5-35.9-27.8-50.1-35.3s-2.4-.5-3.5.2l-21.3,15c-2.1,1.5-1.8,4.7.6,5.7,14.4,6.2,33.7,16.5,53.1,33.4,19.9,17.3,32.8,35.4,40.8,48.8,1,1.7,3.2,2.1,4.8,1Z"/>
  <path class="cls-4" d="M526.6,598.5"/>
  <path class="cls-4" d="M527.7,521.3"/>
  <path class="cls-4" d="M511.3,582.9"/>
  <path class="cls-4" d="M589.2,582.9"/>
  <path class="cls-4" d="M573.5,598.5"/>
  <path class="cls-4" d="M550.5,494.5l5.3,54.6c0,0,0,0,.1,0l23.8-18.2c0,0,.2,0,.1.1l-19.3,22.7c0,0,0,.1,0,.1l56.5,5.7c0,0,0,.2,0,.2l-56.5,5.7c0,0,0,0,0,.1l18.1,22.6c0,0,0,.2-.1.1l-22.6-18.1c0,0-.1,0-.1,0l-5.3,55c0,0-.2,0-.2,0l-6.2-52.6c0,0,0,0-.1,0l-22.7,15.9c0,0-.2,0-.1-.1l18.2-22.7c0,0,0-.1,0-.1l-55.4-5.1c0,0-.1-.2,0-.2l55.4-6.4c0,0,0,0,0-.1l-18.1-22.6c0,0,0-.2.1-.1l22.6,18.1c0,0,.1,0,.1,0l6.2-54.6c0,0,.2,0,.2,0Z"/>
  <g>
    <g>
      <path class="cls-4" d="M897.9,330.6l101.2,23.4c2.9.7,3.7,4.4,1.3,6.2-120.4,88.7-240.8,177.3-361.2,266,13.9-18.8,22.1-42.1,22.1-67.3s-3.5-32.2-9.9-46.4c38.7-28.5,184.7-136.2,246.5-181.9Z"/>
      <path class="cls-4" d="M620.2,640.1c7.1-7.4,27.8-30.9,31.3-67.3,2.4-24.8-4.2-44.4-8.4-54.3,1.5-1.1,4.3-3.2,8.2-6,6.4,14.2,9.9,29.9,9.9,46.4,0,25.2-8.2,48.5-22.1,67.3-6.3,4.6-12.6,9.3-18.9,13.9Z"/>
      <path class="cls-4" d="M456.7,618c.5-.4.8-1.2.5-1.9-1.4-3.9-2.9-8.7-4.2-14.3-3.2-13-5.6-30.3-3.7-50.2,3.6-37.4,20.4-63.7,29.4-75.9.2-.2-.1-.5-.4-.4l-21.5,15.8c20.7-27.7,53.7-45.7,90.9-45.7s85.8,27.5,103.5,67c-3.8,2.8-6.6,4.9-8.2,6,4.2,9.9,10.8,29.5,8.4,54.3-3.5,36.4-24.2,59.9-31.3,67.3,6.3-4.6,12.6-9.3,18.9-13.9-20.6,28-53.8,46.1-91.3,46.1s-74.7-20.5-95-51.4l3.8-2.9ZM637.3,558.9c0-47.9-38.8-86.6-86.6-86.6s-86.6,38.8-86.6,86.6,38.8,86.6,86.6,86.6,86.6-38.8,86.6-86.6Z"/>
      <path class="cls-4" d="M457.3,616.1c.2.7,0,1.4-.5,1.9l-3.8,2.9h0c-3-4.6-5.6-9.3-7.9-14.3l5.4-4.1,2.6-.6c1.4,5.6,2.9,10.4,4.2,14.3Z"/>
      <path class="cls-4" d="M206.8,783.4l238.1-176.9c2.3,5,4.9,9.7,7.9,14.3l-232.1,174.2-8.8,6.6c-.4.3-1,.4-1.5.3l-119.9-37c-1.3-.4-1.6-2.1-.5-2.9l194.5-144.2,172.2-126.7c-7.5,10-13.3,21.3-17.2,33.5l-315.6,233.2,82.7,25.6Z"/>
      <path class="cls-4" d="M450.4,602.5l-5.4,4.1c-6.7-14.5-10.5-30.6-10.5-47.6s1.8-23.4,5.3-34.3l7.5-5.5c-3,8.9-6.7,23-6.2,40.5.5,19,5.6,33.9,9.4,42.8Z"/>
      <path class="cls-4" d="M439.8,524.6c3.9-12.2,9.7-23.5,17.2-33.5l21.5-15.8c.3-.2.5.1.4.4-9,12.1-25.8,38.5-29.4,75.9-1.9,20,.5,37.2,3.7,50.2l-2.6.6c-3.8-8.9-8.9-23.8-9.4-42.8-.5-17.6,3.2-31.7,6.2-40.5l-7.5,5.5Z"/>
    </g>
    <g>
      <polyline class="cls-2" points="232.5 656.3 276.5 623.9 278.3 622.6"/>
      <line class="cls-2" x1="197.8" y1="681.8" x2="232.5" y2="656.3"/>
      <line class="cls-2" x1="197.8" y1="681.8" x2="196" y2="683.1"/>
      <path class="cls-2" d="M235.2,762.5c28-20.8,56.1-41.6,84.2-62.4"/>
      <line class="cls-2" x1="212" y1="801.6" x2="211.4" y2="802.1"/>
      <line class="cls-2" x1="452.9" y1="620.8" x2="220.8" y2="795"/>
      <line class="cls-2" x1="457.7" y1="617.3" x2="456.7" y2="618"/>
      <path class="cls-2" d="M450.4,602.5c-3.8-8.9-8.9-23.8-9.4-42.8-.5-17.6,3.2-31.7,6.2-40.5l-7.5,5.5-315.6,233.2,82.7,25.6,238.1-176.9,5.4-4.1Z"/>
      <path class="cls-2" d="M452.9,620.8c-3-4.6-5.6-9.3-7.9-14.3-6.7-14.5-10.5-30.6-10.5-47.6s1.8-23.4,5.3-34.3c3.9-12.2,9.7-23.5,17.2-33.5,20.7-27.7,53.7-45.7,90.9-45.7s85.8,27.5,103.5,67c6.4,14.2,9.9,29.9,9.9,46.4,0,25.2-8.2,48.5-22.1,67.3-20.6,28-53.8,46.1-91.3,46.1s-74.7-20.5-95-51.4"/>
      <circle class="cls-2" cx="550.6" cy="558.9" r="86.6"/>
      <path class="cls-2" d="M453,601.8c-3.2-13-5.6-30.3-3.7-50.2,3.6-37.4,20.4-63.7,29.4-75.9.2-.2-.1-.5-.4-.4l-21.5,15.8-172.2,126.7-194.5,144.2c-1.1.8-.8,2.5.5,2.9l119.9,37c.5.1,1,0,1.5-.3l8.8-6.6,232.1-174.2h0l3.8-2.9c.5-.4.8-1.2.5-1.9-1.4-3.9-2.9-8.7-4.2-14.3Z"/>
    </g>
  </g>
  <path class="cls-4" d="M504.7,656.6c-10.1-4.5-27.9-10.8-50.6-10.4-25.6.5-44.9,9.2-55,14.6l59.6-47,46,42.7Z"/>
  <path class="cls-4" d="M716.2,469.1"/>
  <path class="cls-4" d="M636.2,386.6"/>
  <path class="cls-4" d="M365.8,686.7c6.7-5.2,13.3-10.3,20-15.5,7.5,10.2,52.8,70.1,136.5,80.7,80.2,10.1,137.1-32.4,147.8-40.7,6.5,6.3,12.9,12.6,19.4,19-10.7,8.9-75.9,61.6-169.3,49.9-95.9-11.9-146.6-82.3-154.4-93.4Z"/>
  <path class="cls-4" d="M676.9,333.4"/>
  <path class="cls-4" d="M334.6,579.7"/>
  <path class="cls-4" d="M821.1,557.6"/>
  <path class="cls-4" d="M550.1,286.7"/>
  <path class="cls-4" d="M279.1,557.6"/>
  <path class="cls-6" d="M300.5,275.9c2,4.1,6,13.6,4.7,25.9-1.8,17.3-12.8,27.9-15.8,30.5-3.2,2.8-11.1,8.9-23,11-11.5,2-20.7-.7-24.7-2.2,3.6,2.2,13.2,6.6,25.4,4.1,12.3-2.5,20.6-8.2,23.5-10.8,3.4-3,9.5-8.6,13.2-17.8,4.9-12.2,3.4-23.3,3-26-1.2-6.8-4.5-11.6-6.4-14.8Z"/>
  <path class="cls-4" d="M526.5,830.2"/>
  <path class="cls-1" d="M448.5,516.4c-3.4,9.3-8,25.7-6.7,46.3,1.1,17.4,6.1,31.1,10,39.5-45,33.4-89.9,66.9-134.9,100.3-6.3-9.8-12.9-21.7-18.9-35.9-4.7-11.2-8.1-21.6-10.6-31,53.7-39.8,107.4-79.5,161.1-119.3Z"/>
  <path class="cls-4" d="M111.4,759.6c32.3,10.2,64.6,20.5,96.9,30.7,9.2-7.5,18.5-15.1,27.7-22.6-5.2-9.1-10.4-18.7-15.6-29-7.5-14.9-13.9-29.2-19.5-42.8-29.9,21.2-59.7,42.4-89.6,63.7Z"/>
  <path class="cls-4" d="M285.3,617.6l-88.7,65.5c4.8,13.9,10.9,29.1,18.5,45.1,7.1,14.9,14.5,28.3,21.7,40.2,28.9-19.5,57.9-39.1,86.8-58.6-8.5-11.4-18.6-27.5-26.6-48.2-6.4-16.6-9.8-31.7-11.6-43.9Z"/>
  <path class="cls-5" d="M632.4,695.9"/>
  <path class="cls-5" d="M2.1,787"/>
  <path class="cls-7" d="M578.8,829.7l-26.1,26.1-39.8,77.7c19.6,2.2,47.6,3.8,80.8.1,38.4-4.2,139.3-21.5,223.4-106.3,16.6-16.8,70.6-74.5,94.9-169,22.6-88,7.4-161-1.6-193.9-30.7,21.9-61.3,43.9-92,65.8,2,16.6,13.1,122-63.9,210-67.3,76.8-155.7,87.7-175.7,89.6Z"/>
  <path class="cls-3" d="M544.2,968.2"/>
  <path class="cls-6" d="M425.2,205.1l85.5,89.3c-14.9,1.9-35.6,5.8-59.1,14.4-20.8,7.6-84.4,33.8-130.1,97.9-64.5,90.6-46.9,192.1-43.2,211.1.6,2.7,1.2,5.5,1.8,8.3.8,3.4,1.6,6.7,2.4,9.9,2.2,8.4,5.2,17.6,9.1,27.3,6.3,15.6,13.6,28.7,20.5,39.2,3,4.1,6,8.2,9,12.3,8.2,11.3,19.7,25.4,35.1,39.8,7.1,6.7,25.6,23.2,53.2,38.9,16,9.1,48.4,25.6,92.4,33.7,7.6,1.4,13.9,2.2,18.2,2.7,4.3,4.6,8.7,9.1,13,13.7,3.8,4,7.5,8,11.3,12-13.3,25.9-26.5,51.8-39.8,77.7-8.3-.8-20.5-2.3-35.2-5.2-76.8-15.3-131.5-52.4-158.5-73.6-20-15.7-47.3-40.5-73.6-76.7-2.3-3.2-4.6-6.4-6.9-9.6-7.8-13-15.6-27.4-23.1-43.3-4.7-10-8.9-19.7-12.6-29.1-.6-1.9-1.2-3.9-1.8-5.9-.8-2.4-1.6-4.7-2.3-7-7.6-20.2-16.8-50.2-20.6-87.3-1.5-15.1-6.8-76.7,18-151.3,8.7-26.1,24.5-64.1,53.8-104.5,2.7,2.4,13.3,11.6,29.6,11.9,13.8.3,23.6-5.9,26.9-8.2,2.1-2,5.1-5,7.8-9.2,2.3-3.6,9.2-14.4,8.2-29.2-1.1-16.7-11.4-27.3-14.1-29.9,14.9-12.4,33.7-26.2,56.5-39.2,25.3-14.4,49-24.2,68.8-30.9Z"/>
  <path class="cls-5" d="M432,201.6c6.4-6.8,12.8-13.6,19.2-20.5,13.7-14.6,27.4-29.3,41.1-43.9,18.4-19.6,36.7-39.2,55.1-58.8,14.3,15.2,28.7,30.4,43,45.7,24.6,26.1,49.2,52.3,73.9,78.4,21.7,7.3,47,17.9,73.7,33.9,53.7,32.3,88.7,71.8,109.5,99.9-27.8,20.2-55.7,40.4-83.5,60.5-16.5-22.1-33.1-37.6-45.5-47.7-16-13.1-66.4-51.1-141.3-58.9-24.9-2.6-45.6-1.2-59.7.6-28.5-29.8-57-59.6-85.5-89.3Z"/>
</svg>