<?xml version="1.0" encoding="UTF-8"?>
<svg id="Layer_1" data-name="Layer 1" xmlns="http://www.w3.org/2000/svg" version="1.1" viewBox="0 0 744 727">
  <defs>
    <style>
      .cls-1 {
        fill: #000;
        stroke-width: 0px;
      }
    </style>
  </defs>
  <path class="cls-1" d="M537.9,445.5c-8,28.1-20.8,48.5-29.8,60.5-4.9-5-9.8-10.1-14.6-15.1,8.1-10.8,19.5-28.9,26.3-53.8,5.5-19.8,6.2-37.2,5.8-49.4,6.2-4.3,12.3-8.6,18.4-12.9,1.6,15.4,2.3,40.9-6.1,70.7Z"/>
  <path class="cls-1" d="M445.5,447.4c3.2-2.3,6.5-4.7,9.7-7-.7,1.5-1.5,3.7-1.6,6.6-.3,4.2.9,7.4,1.6,9.1l-9.7-8.7Z"/>
  <path class="cls-1" d="M407,475l8.5-4.9c2.3,2.3,4.7,4.7,7,7-1.9-.6-4.1-1.2-6.6-1.6-3.4-.6-6.5-.6-8.9-.5Z"/>
  <path class="cls-1" d="M497.3,545.6c1.1,2.5,2.6,6.8,2.7,12.3.1,5.5-1.1,9.8-2.1,12.4,4.8-3.6,9.6-7.2,14.3-10.8l-15-13.8Z"/>
  <path class="cls-1" d="M546.2,522.3l-7.7,10.1-13.1-11.3c2.5.9,6.3,2,10.9,2.2,4.1.2,7.5-.4,9.9-1Z"/>
  <polygon class="cls-1" points="444.2 445.6 542.5 535.6 514.7 563.5 410.7 467.8 444.2 445.6"/>
  <path class="cls-1" d="M449.9,363l50-35.9c-9.4,3-24.5,6.6-43.2,5.7-16.4-.8-29.5-4.8-38.2-8.2,10.4,12.8,20.9,25.6,31.3,38.5Z"/>
  <path class="cls-1" d="M508.6,320.9l13.8-10.2c1.1-.8,1.4-2.3.7-3.5-7.1-11.5-17.9-26.3-33.7-40.7-14.3-13-28.4-21.9-39.6-27.8s-1.9-.4-2.7.2l-16.8,11.8c-1.7,1.2-1.4,3.7.5,4.5,11.4,4.9,26.6,13,41.9,26.4,15.7,13.7,25.9,27.9,32.2,38.5.8,1.3,2.6,1.7,3.8.8Z"/>
  <path class="cls-1" d="M372.2,345.6l4.2,43.1c0,0,0,0,.1,0l18.8-14.3c0,0,.1,0,0,0l-15.2,17.9s0,.1,0,.1l44.6,4.5c0,0,0,.1,0,.1l-44.6,4.5c0,0,0,0,0,.1l14.3,17.8c0,0,0,.1,0,0l-17.8-14.3s-.1,0-.1,0l-4.2,43.4c0,0-.1,0-.1,0l-4.9-41.6s0,0-.1,0l-17.9,12.6c0,0-.1,0,0,0l14.4-17.9s0-.1,0-.1l-43.8-4c0,0,0-.1,0-.1l43.8-5c0,0,0,0,0-.1l-14.3-17.8c0,0,0-.1,0,0l17.8,14.3s0,0,.1,0l4.9-43.1c0,0,.1,0,.1,0Z"/>
  <g>
    <path class="cls-1" d="M727.3,230.9c3.9.9,4.9,5.9,1.7,8.2-95,69.9-190,139.9-284.9,209.8-1.1.8-2.4.2-2.8-.7,10.7-14.4,17.1-32.2,17.1-51.6s-2.7-24.4-7.4-35.1c.1-.3.3-.5.6-.7,18.5-13.7,146.4-108,199.2-147,.4-.3,1-.4,1.5-.3l75.1,17.3Z"/>
    <path class="cls-1" d="M269.5,120.8c31.2-11.4,83.5-24.4,146.4-14.5,43.2,6.8,76.8,22.1,98.9,34.6,46.3,26.3,75.3,59.5,90.8,80.4.8,1.1.6,2.7-.5,3.5-20.7,15-41.3,30-62,44.9-1.1.8-2.6.6-3.4-.5-12.7-16.6-37-43.5-76-62.4-79.6-38.6-155-12.4-166.5-8.2-20.1,7.4-73.5,30.3-108.8,89-40.6,67.6-28.9,135.4-25.1,153.4.1.6,0,1.1-.2,1.6-27.3,2.2-54.6,4.4-81.9,6.5h-.4c-1.1-5.7-2.1-11.8-2.9-18.1-1.1-9.2-4.7-42.8,3.3-85.7,10.1-54,33.5-94.8,51.2-119.9.8-1.1,2.4-1.4,3.5-.5,13.8,10.4,32.5,10,44.2,0,13.9-11.9,15.7-35.4,1.8-50.9-.9-1-.8-2.7.3-3.5,17.6-14.4,44.9-33.5,82-47.8,1.7-.6,3.4-1.3,5.2-1.9Z"/>
    <path class="cls-1" d="M450.8,363.1c3.3,8.2,7.8,23,6,41.5-1.8,18.2-9,32.4-15.5,41.8-.4.6-.4,1.3-.2,1.9-15.8,21.2-41,34.9-69.4,34.9s-58-16.2-73.3-40.5h0v-.2c-3.7-10.4-8.5-28.5-6.3-51,2.9-29.5,16.1-50.3,23.2-59.9,0-.1,0-.3-.1-.3,15.1-13.1,34.9-21,56.4-21,35.2,0,65.6,21.1,79,51.4-.2.5-.2,1,0,1.5ZM440.7,397.2c0-37.8-30.6-68.4-68.4-68.4s-68.4,30.6-68.4,68.4,30.6,68.4,68.4,68.4,68.4-30.6,68.4-68.4Z"/>
    <path class="cls-1" d="M456.9,404.6c1.8-18.5-2.8-33.3-6-41.5-.2-.5-.2-1.1,0-1.5,4.8,10.7,7.4,22.6,7.4,35.1,0,19.3-6.3,37.2-17.1,51.6-.3-.5-.3-1.2.2-1.9,6.5-9.4,13.7-23.5,15.5-41.8Z"/>
    <path class="cls-1" d="M315.4,331.2c.1,0,.2.2.1.3-7.1,9.6-20.4,30.4-23.2,59.9-2.2,22.5,2.6,40.6,6.2,51,0,0,0,.1,0,.2-2.2-3.4-4.1-7-5.7-10.7l.3-.2c-3-7-7-18.8-7.4-33.8-.2-6.1.3-11.7,1.1-16.7,3.6-19.8,14-37.3,28.6-49.9Z"/>
    <path class="cls-1" d="M315.2,331.3c0,0,.1,0,.2,0-14.6,12.6-25,30.1-28.6,49.9,1-6.2,2.5-11.4,3.8-15.3l-255.1,188.5,65.3,20.2,192-142.6c1.7,3.7,3.6,7.3,5.7,10.7h0c0,.5,0,1-.5,1.3l-193.2,145c-.3.2-.8.3-1.2.2l-94.6-29.2c-1-.3-1.3-1.6-.4-2.3l153.6-113.9,152.9-112.5Z"/>
    <path class="cls-1" d="M293.1,431.6l-.3.2c-4.8-10.7-7.5-22.6-7.5-35.1s.5-10.5,1.4-15.6c-.8,4.9-1.3,10.5-1.1,16.7.4,15,4.4,26.8,7.4,33.8Z"/>
    <path class="cls-1" d="M81.3,449.1c27.3-2.2,54.6-4.4,81.9-6.5-.2.3-.4.7-.8.9-22,16.3-44.1,32.5-66.1,48.8-1.3,1-3.2.4-3.8-1.1-4.1-11.3-8.5-25.4-11.7-41.9h.4Z"/>
  </g>
  <path class="cls-1" d="M336,474.2c-7.9-3.5-22-8.5-40-8.2-20.2.4-35.5,7.2-43.4,11.5l47.1-37.1,36.3,33.7Z"/>
  <path class="cls-1" d="M500.4,328.4c.1,0,.3-.1.3-.2s0-.3,0-.3c0,0-.1,0-.2,0-.3,0-.6.1-.9.3.3-.2.6-.3.9-.5"/>
  <line class="cls-1" x1="414.6" y1="470.1" x2="513.5" y2="561.5"/>
  <path class="cls-1" d="M224.6,495.7c5.3-4.8,10.7-9.7,16-14.5,5.8,8.4,41.8,58.7,109.3,67.7,62.9,8.4,107.9-25.3,116.7-32.1,5.1,5,10.2,10,15.3,15-9,7.5-60.5,48.5-133.7,39.4-76.3-9.5-117.2-66.1-123.7-75.4Z"/>
  <path class="cls-1" d="M543.2,269.7c20.7-15,41.3-29.9,62-44.9,1.1-.8,1.4-2.4.5-3.5-15.5-20.9-44.5-54.1-90.8-80.4-22.1-12.5-55.7-27.8-98.9-34.6-66.6-10.5-121.2,4.8-151.7,16.5-37.1,14.3-64.5,33.4-82,47.8-1.1.9-1.2,2.5-.3,3.5,13.9,15.5,12.2,39.1-1.8,50.9-11.7,10-30.4,10.4-44.2,0s-2.7-.6-3.5.5c-17.7,25.1-41.1,65.8-51.2,119.8-8,42.9-4.4,76.6-3.3,85.7,3,24.6,8.9,45,14.5,60.2.6,1.6,2.5,2.1,3.8,1.1,22-16.3,44.1-32.5,66.1-48.8s1.2-1.5,1-2.5c-3.9-18-15.6-85.8,25.1-153.4,35.3-58.7,88.7-81.7,108.8-89,11.5-4.2,86.9-30.4,166.5,8.2,39,18.9,63.3,45.8,76,62.4.8,1.1,2.3,1.3,3.4.5Z"/>
  <path class="cls-1" d="M541,271.6c22-15.9,44-31.9,65.9-47.8-15.1-20.7-44.4-55.2-92.3-82.4-22.1-12.5-55.7-27.8-98.9-34.6-66.6-10.5-121.2,4.8-151.7,16.5-38.6,14.8-66.6,34.9-84.1,49.5,15.8,15.5,14.5,40.4,0,52.7-12.3,10.4-32.3,10.4-46.2-1.6-17.8,24.9-42.3,66.4-52.7,122-8,42.9-4.4,76.6-3.3,85.7,3.2,26.3,9.8,47.8,15.7,63.2,23.4-17.2,46.7-34.5,70.1-51.7-3.4-15.3-17.2-85.2,24.7-154.9,35.3-58.7,88.7-81.7,108.8-89,11.5-4.2,86.9-30.4,166.5,8.2,40.5,19.7,65.2,47.9,77.5,64.3Z"/>
  <path class="cls-1" d="M166.9,457.4c2.1,7.8,5,16.8,9.3,26.5,4.3,9.7,9,18,13.3,24.8-22.1,16.4-44.3,32.7-66.4,49.1-4.8-7.7-9.8-16.3-14.6-25.7-4.4-8.5-8.1-16.8-11.4-24.5,23.2-16.7,46.5-33.5,69.7-50.2Z"/>
  <path class="cls-1" d="M181.4,173c1.6,3.2,4.7,10.7,3.7,20.5-1.4,13.7-10.1,22-12.4,24.1-2.5,2.2-8.7,7-18.2,8.7-9.1,1.6-16.3-.6-19.5-1.8,2.8,1.7,10.4,5.2,20.1,3.2,9.7-2,16.3-6.4,18.6-8.5,2.6-2.3,7.5-6.8,10.4-14.1,3.8-9.6,2.7-18.4,2.3-20.5-1-5.3-3.5-9.1-5-11.7Z"/>
  <path class="cls-1" d="M460.6,116.3c-29.4-31.1-58.9-62.2-88.3-93.2-1.7-1.8-4.5-1.8-6.2,0-29.2,31.3-58.4,62.6-87.7,93.9-3,3.2.3,8.3,4.4,6.9,22.3-7.5,53.6-14.8,91.2-14.4,33.4.4,61.4,6.9,82.1,13.7,4.2,1.4,7.4-3.8,4.4-7ZM369.5,57.5c-7.4,0-13.3-6-13.3-13.3s6-13.3,13.3-13.3,13.3,6,13.3,13.3-6,13.3-13.3,13.3Z"/>
  <path class="cls-1" d="M352.7,610.2l19.6,20.6,20.6-20.6c31.9-3.5,91.6-17.2,138.5-70.5,59-67.1,53.1-146.4,51.3-163.3-.1-1,.3-1.9,1.1-2.5l68-49.5c1.6-1.1,3.8-.3,4.2,1.5,6.7,27.2,27.3,129.6-34,228.5-82.9,133.8-240,139.1-251.4,139.3-26.9-.2-79.2-4.2-136-33.8-60-31.2-94.3-75-110-98.3-.8-1.2-.5-2.8.6-3.7,20.7-15.4,41.4-30.7,62.1-46.1,1.2-.9,3-.6,3.9.6,11.7,17.2,34.6,45.9,73.1,68.3,24.7,14.4,48.7,22,68.7,26.1"/>
</svg>