<?xml version="1.0" encoding="UTF-8"?>
<svg id="Layer_1" data-name="Layer 1" xmlns="http://www.w3.org/2000/svg" version="1.1" viewBox="0 0 415.2 383.8">
  <defs>
    <style>
      .cls-1 {
        fill: #dac0a3;
      }

      .cls-1, .cls-2 {
        stroke-width: 0px;
      }

      .cls-2 {
        fill: #fefaf6;
      }
    </style>
  </defs>
  <path class="cls-2" d="M303.2,242.1c-4.6,16.1-11.9,27.8-17.1,34.6-2.8-2.9-5.6-5.8-8.4-8.7,4.6-6.2,11.1-16.5,15.1-30.8,3.1-11.4,3.6-21.3,3.3-28.3,3.5-2.5,7-4.9,10.6-7.4.9,8.8,1.3,23.4-3.5,40.4Z"/>
  <path class="cls-2" d="M250.1,243c1.8-1.3,3.7-2.7,5.6-4-.4.8-.8,2.1-.9,3.8-.2,2.4.5,4.2.9,5.2l-5.6-5Z"/>
  <path class="cls-2" d="M227.4,259l4.9-2.8c1.3,1.3,2.7,2.7,4,4-1.1-.4-2.3-.7-3.8-.9-2-.3-3.7-.3-5.1-.3Z"/>
  <path class="cls-2" d="M280,299.4c.6,1.4,1.5,3.9,1.6,7,0,3.1-.6,5.6-1.2,7.1,2.7-2.1,5.5-4.1,8.2-6.2l-8.6-7.9Z"/>
  <path class="cls-2" d="M308,286.1l-4.4,5.8-7.5-6.5c1.4.5,3.6,1.2,6.2,1.3,2.3,0,4.3-.2,5.7-.6Z"/>
  <polygon class="cls-2" points="249.6 242.2 305.9 293.7 290 309.7 230.4 254.9 249.6 242.2"/>
  <path class="cls-2" d="M252.9,194.9l28.6-20.6c-5.4,1.7-14,3.8-24.7,3.2-9.4-.5-16.9-2.8-21.8-4.7,6,7.3,11.9,14.7,17.9,22Z"/>
  <path class="cls-2" d="M286.4,170.8l7.9-5.8c.6-.5.8-1.3.4-2-4.1-6.6-10.3-15-19.3-23.3-8.2-7.5-16.2-12.5-22.7-15.9-.5-.3-1.1-.2-1.6,0l-9.6,6.8c-1,.7-.8,2.1.3,2.6,6.5,2.8,15.2,7.4,24,15.1,9,7.8,14.8,16,18.4,22.1s1.5,1,2.2.4Z"/>
  <path class="cls-2" d="M208.4,184.9l2.4,24.7s0,0,0,0l10.8-8.2s0,0,0,0l-8.7,10.3s0,0,0,0l25.6,2.6s0,0,0,0l-25.6,2.6s0,0,0,0l8.2,10.2s0,0,0,0l-10.2-8.2s0,0,0,0l-2.4,24.8s0,0,0,0l-2.8-23.8s0,0,0,0l-10.3,7.2s0,0,0,0l8.2-10.3s0,0,0,0l-25.1-2.3s0,0,0,0l25.1-2.9s0,0,0,0l-8.2-10.2s0,0,0,0l10.2,8.2s0,0,0,0l2.8-24.7s0,0,0,0Z"/>
  <g>
    <path class="cls-2" d="M413.9,119.3c1.3.3,1.7,2,.6,2.8-57.2,42.1-114.5,84.2-171.6,126.4,0,0,0-.2.3-.3,8.9-9,14.5-21.4,14.5-35s-1.5-13.7-4.1-19.8c7.9-5.8,58.3-43.1,93.3-68.8,8.2-6.1,15.6-11.5,21.3-15.8l45.7,10.5Z"/>
    <path class="cls-1" d="M342.4,115c-.5.4-1.1.8-1.6,1.2-12,8.7-24.1,17.5-36.1,26.2-7-9.4-21.2-25.6-44.4-36.8-45.5-22.2-88.7-7.1-95.3-4.8-11.5,4.3-42.1,17.4-62.3,51-23.6,39.1-16.4,78.4-14.2,88.1-15.6,1.3-31.1,2.5-46.7,3.8l-.8.2c-.6-3.2-1.1-6.5-1.5-10-.7-5.2-2.8-24.5,1.9-49,5.9-31.9,19.9-55.6,30.2-69.8,7.9,6.9,19.4,6.9,26.4.9,8.3-7.1,9-21.3,0-30.2,10-8.4,26-19.8,48.1-28.3,17.4-6.7,48.7-15.4,86.8-9.4,24.8,3.9,44,12.7,56.6,19.8,27.4,15.6,44.2,35.4,52.9,47.2Z"/>
    <path class="cls-2" d="M253.1,193.7c1.8,4.4,4.9,13.3,3.8,24.5-1.6,15.8-10.3,26.3-13.7,30-.2,0-.3.2-.3.3,0,0,0,.2-.2.2-8.9,8.7-21.1,14-34.5,14s-33.7-9.5-42.3-23.9c-2.1-6.2-4.4-16.1-3.3-28.1,1.7-16.9,9.2-28.9,13.3-34.3,0-.2,0-.3-.2-.2l-2,1.5c8.9-8.7,21-14,34.5-14,20.2,0,37.6,12.1,45.3,29.6-.2.2-.3.3-.4.3ZM247.6,214c0-21.6-17.6-39.1-39.2-39.1s-39.1,17.6-39.1,39.1,17.6,39.2,39.1,39.2,39.2-17.6,39.2-39.2Z"/>
    <path class="cls-2" d="M256.9,218.2c1.1-11.2-1.9-20.1-3.8-24.5,0,0,.3-.2.4-.3,2.6,6.1,4.1,12.8,4.1,19.8,0,13.6-5.5,26-14.5,35,3.4-3.8,12.1-14.2,13.7-30Z"/>
    <path class="cls-2" d="M175.7,176.3c0,0,.3,0,.2.2-4.1,5.4-11.6,17.4-13.3,34.3-1.2,12,1.2,21.9,3.3,28.1-1.1-1.6-1.9-3.3-2.8-5.1,0,0,0-.2,0-.3-.4-.9-.8-2-1.3-3.3s-.5-1.5-.8-2.3c-1-3.7-1.9-8.4-2.1-13.6,0-4.8.4-8.9,1.2-12.4,0-.3.2-.5.2-.8.2-.9.4-1.8.8-2.7,2.4-7.9,6.9-15,12.6-20.7h.2c0,0,2-1.6,2-1.6Z"/>
    <path class="cls-2" d="M173.6,177.9c-5.8,5.7-10.2,12.7-12.6,20.7.3-.9.5-1.8.8-2.5L15.6,303.9l37.4,11.6,12.8-9.4,38.1-28.3,59.3-44.1c.8,1.8,1.7,3.5,2.8,5.1,0,.4.3.8.3,1.1,0,.3,0,.6-.3.8l-110.6,83c-.3.2-.5.2-.7,0L.5,307.1c-.6-.2-.8-1-.3-1.3l48.2-35.7,16.1-12c8-5.9,16-11.7,24-17.6h0c0,0,.4-.5.4-.5l84.5-62.1Z"/>
    <path class="cls-2" d="M163,233.5c-.5-1-.9-2.2-1.3-3.3.4,1.3.8,2.3,1.3,3.3Z"/>
    <path class="cls-2" d="M160.9,198.5c-.3.9-.6,1.8-.8,2.7.3-.9.5-1.8.8-2.7Z"/>
    <path class="cls-2" d="M158.9,214.3c.2,5.3,1.1,10,2.1,13.6-1.5-4.7-2.3-9.6-2.3-14.7s.4-7.7,1.3-11.3c-.8,3.4-1.3,7.6-1.2,12.4Z"/>
    <path class="cls-1" d="M88.6,240.4h0c-8,6-16,11.9-24,17.7l14.4-10.7,5.5-4,.8-.6,2.9-2.2.4-.3Z"/>
    <path class="cls-1" d="M79,247.4l-14.4,10.7-16.1,12c-2.6-6.8-5.4-15.6-7.4-26.2l.8-.2c15.6-1.3,31.1-2.5,46.7-3.8,0,.2,0,.3,0,.4l-.4.3-2.9,2.2-.8.6-5.5,4Z"/>
  </g>
  <path class="cls-2" d="M187.6,258.5c-4.5-2-12.6-4.9-22.9-4.7-11.6.2-20.3,4.1-24.8,6.6l27-21.2,20.8,19.3Z"/>
  <path class="cls-2" d="M123.8,270.8c3.1-2.8,6.1-5.6,9.2-8.3,3.3,4.8,24,33.6,62.6,38.7,36,4.8,61.8-14.5,66.8-18.4,2.9,2.9,5.9,5.7,8.8,8.6-5.2,4.3-34.6,27.8-76.5,22.6-43.7-5.4-67.1-37.9-70.8-43.2Z"/>
  <path class="cls-1" d="M99.2,86.1c.9,1.8,2.7,6.1,2.1,11.7-.8,7.8-5.8,12.6-7.1,13.8-1.5,1.3-5,4-10.4,5-5.2.9-9.4-.3-11.2-1,1.6,1,5.9,3,11.5,1.9,5.6-1.1,9.3-3.7,10.6-4.9,1.5-1.3,4.3-3.9,6-8,2.2-5.5,1.6-10.6,1.3-11.7-.6-3.1-2-5.2-2.9-6.7Z"/>
  <path class="cls-1" d="M258.9,53.7c-16.9-17.8-33.7-35.6-50.6-53.4-1-1-2.6-1-3.6,0-16.7,17.9-33.5,35.9-50.2,53.8-1.7,1.8.2,4.8,2.5,4,12.8-4.3,30.7-8.5,52.2-8.2,19.1.2,35.1,3.9,47,7.8,2.4.8,4.3-2.2,2.5-4ZM206.8,20c-4.2,0-7.6-3.4-7.6-7.6s3.4-7.6,7.6-7.6,7.6,3.4,7.6,7.6-3.4,7.6-7.6,7.6Z"/>
  <path class="cls-1" d="M197.2,336.4l11.2,11.8,11.8-11.8c18.3-2,52.4-9.9,79.3-40.4,33.8-38.4,30.4-83.8,29.4-93.5,0-.6.2-1.1.6-1.4l38.9-28.3c.9-.7,2.2-.2,2.4.9,3.9,15.6,15.6,74.2-19.4,130.8-47.5,76.6-137.4,79.6-143.9,79.7-15.4-.1-45.3-2.4-77.9-19.3-34.3-17.9-54-43-63-56.3-.5-.7-.3-1.6.4-2.1,11.8-8.8,23.7-17.6,35.5-26.4.7-.5,1.7-.4,2.2.4,6.7,9.8,19.8,26.3,41.8,39.1,14.1,8.2,27.9,12.6,39.3,14.9"/>
  <path class="cls-2" d="M162.2,194.8c-1.5,4.2-3.6,11.6-3,20.9.5,7.9,2.8,14.1,4.5,17.9-20.3,15.1-40.6,30.2-61,45.3-2.8-4.4-5.8-9.8-8.5-16.2-2.1-5-3.7-9.8-4.8-14,24.3-18,48.5-36,72.8-53.9Z"/>
  <path class="cls-2" d="M12.7,306.1l39.9,13,13.6-10.8c-2.4-4.1-4.7-8.5-7-13.1-3.4-6.7-6.3-13.2-8.8-19.4-12.6,10.1-25.1,20.1-37.7,30.2Z"/>
  <path class="cls-1" d="M88.5,240.5l-40.1,29.6c2.2,6.3,4.9,13.1,8.4,20.4,3.2,6.8,6.6,12.8,9.8,18.2,13.1-8.8,26.2-17.7,39.2-26.5-3.8-5.2-8.4-12.4-12-21.8-2.9-7.5-4.4-14.3-5.3-19.8Z"/>
</svg>