<?xml version="1.0" encoding="utf-8"?>
<!-- Generator: Adobe Illustrator 28.5.0, SVG Export Plug-In . SVG Version: 9.03 Build 54727)  -->
<svg version="1.1" id="Layer_1" xmlns="http://www.w3.org/2000/svg" xmlns:xlink="http://www.w3.org/1999/xlink" x="0px" y="0px"
	 viewBox="0 0 691.5 637.4" style="enable-background:new 0 0 691.5 637.4;" xml:space="preserve">
<style type="text/css">
	.Drop_x0020_Shadow{fill:none;}
	.Outer_x0020_Glow_x0020_5_x0020_pt{fill:none;}
	.Blue_x0020_Neon{fill:none;stroke:#8AACDA;stroke-width:7;stroke-linecap:round;stroke-linejoin:round;}
	.Chrome_x0020_Highlight{fill:url(#SVGID_1_);stroke:#FFFFFF;stroke-width:0.3629;stroke-miterlimit:1;}
	.Jive_GS{fill:#FFDD00;}
	.Alyssa_GS{fill:#A6D0E4;}
	.st0{fill:#EADBC8;}
	.st1{fill:#FEFAF6;}
	.st2{fill:#102C57;}
</style>
<linearGradient id="SVGID_1_" gradientUnits="userSpaceOnUse" x1="-219.3146" y1="-302.0659" x2="-219.3146" y2="-303.0659">
	<stop  offset="0" style="stop-color:#656565"/>
	<stop  offset="0.618" style="stop-color:#1B1B1B"/>
	<stop  offset="0.6292" style="stop-color:#545454"/>
	<stop  offset="0.9831" style="stop-color:#3E3E3E"/>
</linearGradient>
<path class="st0" d="M504.1,401c-7.6,26.8-19.9,46.2-28.4,57.7c-4.6-4.8-9.3-9.6-13.9-14.4c7.7-10.3,18.5-27.5,25.1-51.2
	c5.2-18.9,5.9-35.4,5.5-47c5.9-4.1,11.7-8.2,17.6-12.3C511.4,348.3,512.1,372.6,504.1,401z"/>
<g id="XMLID_00000150809884397621485130000015940172284071346576_">
	<g>
		<path class="st0" d="M416.2,402.8c3.1-2.2,6.2-4.4,9.2-6.7c-0.6,1.4-1.4,3.5-1.6,6.3c-0.3,4,0.9,7.1,1.6,8.6L416.2,402.8z"/>
	</g>
</g>
<path class="st0" d="M378.4,429.5l8.1-4.7c2.2,2.2,4.4,4.5,6.7,6.7c-1.8-0.6-3.9-1.2-6.3-1.6C383.7,429.4,380.8,429.3,378.4,429.5z"
	/>
<path class="st0" d="M465.9,496.7c1,2.4,2.5,6.5,2.6,11.7c0.1,5.2-1.1,9.3-2,11.8c4.6-3.4,9.1-6.9,13.7-10.3L465.9,496.7z"/>
<path class="st0" d="M512.5,474.5l-7.4,9.6l-12.5-10.8c2.4,0.9,6,1.9,10.4,2.1C506.9,475.6,510.2,475.1,512.5,474.5z"/>
<polygon class="st0" points="415.1,401.5 508.8,487.2 482.4,513.8 383.3,422.6 "/>
<path class="st1" d="M415.5,325.5l47.6-34.2c-8.9,2.9-23.3,6.3-41.1,5.4c-15.6-0.8-28.1-4.6-36.3-7.8
	C395.7,301.1,405.6,313.3,415.5,325.5z"/>
<path class="st0" d="M476.7,282.6l13.1-9.7c1-0.8,1.3-2.2,0.6-3.3c-6.8-11-17.1-25-32.1-38.8c-13.6-12.4-27-20.9-37.7-26.5
	c-0.8-0.4-1.8-0.4-2.6,0.2l-16,11.3c-1.6,1.1-1.3,3.5,0.4,4.3c10.8,4.7,25.3,12.4,39.9,25.1c14.9,13,24.7,26.6,30.7,36.7
	C473.9,283.1,475.5,283.5,476.7,282.6z"/>
<path class="st2" d="M346.7,306.1l4,41c0,0,0.1,0.1,0.1,0l17.9-13.7c0.1,0,0.1,0,0.1,0.1l-14.5,17.1c0,0,0,0.1,0,0.1l42.5,4.3
	c0.1,0,0.1,0.1,0,0.1l-42.5,4.3c0,0-0.1,0.1,0,0.1l13.6,17c0,0.1,0,0.1-0.1,0.1l-17-13.6c0,0-0.1,0-0.1,0l-4,41.3
	c0,0.1-0.1,0.1-0.1,0l-4.6-39.6c0,0-0.1-0.1-0.1,0l-17.1,12c-0.1,0-0.1,0-0.1-0.1l13.7-17.1c0,0,0-0.1,0-0.1l-41.7-3.8
	c-0.1,0-0.1-0.1,0-0.1l41.7-4.8c0,0,0.1-0.1,0-0.1l-13.6-17c0-0.1,0-0.1,0.1-0.1l17,13.6c0,0,0.1,0,0.1,0l4.6-41
	C346.6,306.1,346.7,306.1,346.7,306.1z"/>
<g id="XMLID_00000011027857688504248310000014018357986250755241_">
	<g>
		<path class="st0" d="M689.4,196.7c2.2,0.5,2.8,3.3,1,4.6c-95.3,70.2-190.6,140.4-285.9,210.6c0.6-0.6,1.3-1.4,2.1-2.3
			c13.8-14.7,22.2-34.5,22.2-56.2c0-11.7-2.4-22.9-6.9-33c13.6-10.1,140.5-103.6,191.4-141.2L689.4,196.7z"/>
		<path class="st2" d="M569.9,189.8C548.9,205,528,220.2,507,235.4c-11.7-15.6-35.2-42.5-73.8-61.2c-75.8-36.8-147.7-11.8-158.6-7.9
			c-19.2,7-70,28.9-103.6,84.8c-39.2,65.2-27.3,130.6-23.7,146.8c-25.9,2.1-51.7,4.1-77.6,6.2l-1.3,0.3c-1-5.3-1.9-10.8-2.6-16.6
			c-1.1-8.7-4.5-40.8,3.1-81.7c9.9-53,33.2-92.5,50.3-116.2c13.2,11.5,32.3,11.5,44,1.6c13.8-11.7,15-35.5,0-50.3
			c16.6-13.9,43.3-33,80.1-47.1c29-11.2,81-25.7,144.5-15.7c41.2,6.5,73.2,21,94.2,33C527.5,137.2,555.4,170.1,569.9,189.8z"/>
		<path class="st2" d="M421.7,320.4c3.1,7.5,8.1,22.2,6.3,40.8c-2.4,24.3-14.9,41-21.4,48.3c-15,16.1-36.4,26.1-60.1,26.1
			c-29.8,0-55.9-15.8-70.4-39.5c-3.4-10.1-7.4-26.7-5.4-47.1c2.7-28.1,15.3-47.9,22.1-57.1c0.1-0.2-0.1-0.4-0.3-0.3l-3.6,2.6
			c14.8-14.5,35.1-23.4,57.5-23.4c33.7,0,62.7,20.3,75.5,49.3C421.8,320.4,421.8,320.4,421.7,320.4z M412,354.6
			c0-36-29.2-65.2-65.2-65.2s-65.2,29.2-65.2,65.2s29.2,65.2,65.2,65.2S412,390.6,412,354.6z"/>
		<path class="st0" d="M428,361.3c1.8-18.6-3.2-33.4-6.3-40.8c0,0,0.1-0.1,0.2-0.1c4.4,10.1,6.9,21.3,6.9,33
			c0,21.8-8.4,41.5-22.2,56.2C413.1,402.2,425.6,385.6,428,361.3z"/>
		<path class="st2" d="M292.5,291.7c0.2-0.1,0.4,0.1,0.3,0.3c-6.8,9.1-19.4,28.9-22.1,57.1c-2,20.4,2,37,5.4,47.1
			c-1.7-2.8-3.3-5.7-4.7-8.8l0,0c-2.9-6.7-6.7-17.9-7.1-32.2c-0.3-9.7,1.1-18,2.8-24.4c0,0,0-0.1,0-0.1c4-14,11.6-26.4,21.7-36.3
			L292.5,291.7z"/>
		<path class="st2" d="M288.9,294.4c-10.1,9.9-17.7,22.3-21.7,36.3c0.6-2.2,1.2-4.3,1.8-6L26,504.2l62.2,19.2l183.2-136.1
			c1.4,3,2.9,6,4.7,8.8c0.2,0.5,0.3,1,0.5,1.5c0.2,0.5,0,1.1-0.4,1.4l-184,138.1c-0.3,0.2-0.7,0.3-1.1,0.2L0.9,509.5
			c-1-0.3-1.2-1.6-0.4-2.2L80.7,448c22.3-16.4,44.5-32.8,66.7-49.2c0-0.1,0-0.1,0-0.2L288.9,294.4z"/>
		<path class="st2" d="M271.4,387.4L271.4,387.4c-4.7-10.4-7.4-21.9-7.4-34c0-7.8,1.1-15.4,3.1-22.6c-1.7,6.4-3.1,14.7-2.8,24.4
			C264.7,369.5,268.6,380.7,271.4,387.4z"/>
		<path class="st2" d="M147.4,398.5c0,0.1,0,0.1,0,0.2c-22.3,16.4-44.5,32.8-66.7,49.2l66.1-49L147.4,398.5z"/>
		<path class="st2" d="M80.6,447.7c-4.3-11.3-8.9-25.9-12.2-43.4l1.3-0.3c25.8-2.1,51.7-4.1,77.6-6.2c0,0.2,0.1,0.5,0.1,0.7
			l-0.5,0.4l-66.1,49C80.6,447.9,80.6,447.7,80.6,447.7z"/>
	</g>
</g>
<path class="st2" d="M312.3,428.1c-7.6-3.4-21-8.1-38.1-7.8c-19.3,0.3-33.8,6.9-41.3,11l44.9-35.3L312.3,428.1z"/>
<path class="st0" d="M207.8,450.7c5-3.9,10-7.8,15-11.6c5.6,7.7,39.7,52.7,102.7,60.7c60.3,7.6,103.1-24.4,111.2-30.6
	c4.9,4.8,9.7,9.5,14.6,14.3c-8,6.7-57.1,46.3-127.4,37.6C251.8,512,213.6,459.1,207.8,450.7z"/>
<path class="st2" d="M165,141.7c1.5,3.1,4.5,10.2,3.6,19.5c-1.4,13-9.7,21-11.9,22.9c-2.4,2.1-8.3,6.7-17.3,8.3
	c-8.7,1.5-15.6-0.6-18.6-1.7c2.7,1.7,9.9,5,19.1,3.1c9.3-1.9,15.5-6.1,17.7-8.1c2.5-2.2,7.2-6.5,9.9-13.4c3.7-9.2,2.6-17.6,2.2-19.5
	C168.9,147.7,166.5,144.1,165,141.7z"/>
<path class="st2" d="M430.9,87.7c-28-29.6-56.1-59.2-84.1-88.8c-1.6-1.7-4.3-1.7-5.9,0c-27.8,29.8-55.7,59.7-83.5,89.5
	c-2.9,3.1,0.3,8,4.2,6.6c21.2-7.1,51.1-14.1,86.9-13.7c31.8,0.4,58.5,6.6,78.2,13C430.7,95.7,433.8,90.8,430.9,87.7z M344.2,31.7
	c-7,0-12.7-5.7-12.7-12.7s5.7-12.7,12.7-12.7s12.7,5.7,12.7,12.7S351.2,31.7,344.2,31.7z"/>
<path class="st2" d="M328.2,558.3l18.7,19.6l19.6-19.6c30.4-3.4,87.3-16.4,131.9-67.2c56.2-63.9,50.6-139.5,48.9-155.6
	c-0.1-0.9,0.3-1.8,1.1-2.4l64.8-47.1c1.5-1.1,3.6-0.3,4,1.5c6.4,25.9,26,123.5-32.4,217.7c-79,127.4-228.6,132.5-239.5,132.7
	c-25.6-0.2-75.5-4-129.6-32.2c-57.2-29.8-89.9-71.5-104.8-93.7c-0.8-1.2-0.5-2.7,0.6-3.5c19.7-14.6,39.4-29.3,59.1-43.9
	c1.2-0.9,2.9-0.6,3.7,0.6c11.1,16.4,33,43.7,69.6,65.1c23.5,13.7,46.4,21,65.4,24.8"/>
<path class="st0" d="M270,322.6c-2.6,7-6,19.3-5,34.8c0.9,13.1,4.6,23.4,7.5,29.7c-33.8,25.2-67.7,50.3-101.5,75.5
	c-4.7-7.3-9.7-16.3-14.2-27c-3.5-8.4-6.1-16.3-8-23.3C189.2,382.5,229.6,352.5,270,322.6z"/>
<path class="st0" d="M21.2,507.9l66.3,21.7l22.7-17.9c-3.9-6.8-7.8-14.1-11.7-21.8c-5.6-11.2-10.5-22-14.6-32.2
	C62.9,474.4,42,491.1,21.2,507.9z"/>
<path class="st2" d="M147.2,398.7L80.5,448c3.6,10.4,8.2,21.9,13.9,33.9c5.3,11.2,10.9,21.3,16.3,30.2
	c21.8-14.7,43.5-29.4,65.3-44.1c-6.4-8.6-14-20.7-20-36.3C151.1,419.3,148.6,407.9,147.2,398.7z"/>
</svg>
