<?xml version="1.0" encoding="utf-8"?>
<!-- Generator: Adobe Illustrator 28.5.0, SVG Export Plug-In . SVG Version: 9.03 Build 54727)  -->
<svg version="1.1" id="Layer_1" xmlns="http://www.w3.org/2000/svg" xmlns:xlink="http://www.w3.org/1999/xlink" x="0px" y="0px"
	 viewBox="0 0 744 727" style="enable-background:new 0 0 744 727;" xml:space="preserve">
<style type="text/css">
	.Drop_x0020_Shadow{fill:none;}
	.Outer_x0020_Glow_x0020_5_x0020_pt{fill:none;}
	.Blue_x0020_Neon{fill:none;stroke:#8AACDA;stroke-width:7;stroke-linecap:round;stroke-linejoin:round;}
	.Chrome_x0020_Highlight{fill:url(#SVGID_1_);stroke:#FFFFFF;stroke-width:0.3629;stroke-miterlimit:1;}
	.Jive_GS{fill:#FFDD00;}
	.Alyssa_GS{fill:#A6D0E4;}
	.st0{fill:#FFFFFF;}
</style>
<linearGradient id="SVGID_1_" gradientUnits="userSpaceOnUse" x1="-179" y1="-146" x2="-179" y2="-147">
	<stop  offset="0" style="stop-color:#656565"/>
	<stop  offset="0.618" style="stop-color:#1B1B1B"/>
	<stop  offset="0.6292" style="stop-color:#545454"/>
	<stop  offset="0.9831" style="stop-color:#3E3E3E"/>
</linearGradient>
<path class="st0" d="M545.9,471.7c-7.2,25.3-18.7,43.6-26.8,54.4c-4.4-4.5-8.8-9.1-13.1-13.6c7.2-9.7,17.5-25.9,23.7-48.3
	c4.9-17.8,5.6-33.4,5.2-44.4c5.5-3.9,11-7.7,16.6-11.6C552.8,422,553.5,444.9,545.9,471.7z"/>
<g id="XMLID_00000054227008623181950310000013111456582598054019_">
	<g>
		<path class="st0" d="M462.9,473.4c2.9-2.1,5.8-4.2,8.7-6.3c-0.6,1.3-1.3,3.3-1.5,5.9c-0.3,3.7,0.8,6.7,1.5,8.1L462.9,473.4z"/>
	</g>
</g>
<path class="st0" d="M428.3,498.2l7.7-4.4c2.1,2.1,4.2,4.2,6.3,6.3c-1.7-0.6-3.7-1.1-5.9-1.5C433.2,498.1,430.5,498.1,428.3,498.2z"
	/>
<path class="st0" d="M509.4,561.6c1,2.2,2.3,6.1,2.4,11.1c0.1,4.9-1,8.8-1.9,11.1c4.3-3.2,8.6-6.5,12.9-9.7L509.4,561.6z"/>
<path class="st0" d="M553.3,540.7l-6.9,9.1l-11.8-10.2c2.3,0.8,5.6,1.8,9.8,2C548.1,541.7,551.1,541.2,553.3,540.7z"/>
<polygon class="st0" points="461.6,471.8 550,552.6 525.1,577.7 431.6,491.7 "/>
<path class="st0" d="M466.8,397.5l44.9-32.3c-8.4,2.7-22,5.9-38.8,5.1c-14.7-0.7-26.5-4.3-34.3-7.4
	C448.1,374.4,457.4,385.9,466.8,397.5z"/>
<path class="st0" d="M519.6,359.6l12.4-9.1c1-0.7,1.2-2.1,0.6-3.1c-6.4-10.4-16.1-23.6-30.3-36.6c-12.8-11.7-25.5-19.7-35.6-25
	c-0.8-0.4-1.7-0.4-2.5,0.2l-15.1,10.6c-1.5,1.1-1.3,3.3,0.4,4.1c10.2,4.4,23.9,11.7,37.7,23.7c14.1,12.3,23.3,25.1,28.9,34.6
	C516.9,360.1,518.4,360.5,519.6,359.6z"/>
<path class="st0" d="M397,381.8l3.8,38.7c0,0,0.1,0.1,0.1,0l16.9-12.9c0.1,0,0.1,0,0.1,0.1l-13.7,16.1c0,0,0,0.1,0,0.1l40.1,4.1
	c0.1,0,0.1,0.1,0,0.1l-40.1,4.1c0,0-0.1,0.1,0,0.1l12.8,16c0,0.1,0,0.1-0.1,0.1l-16-12.8c0,0-0.1,0-0.1,0l-3.8,39
	c0,0.1-0.1,0.1-0.1,0l-4.4-37.4c0,0-0.1-0.1-0.1,0l-16.1,11.3c-0.1,0-0.1,0-0.1-0.1l12.9-16.1c0,0,0-0.1,0-0.1l-39.3-3.6
	c-0.1,0-0.1-0.1,0-0.1l39.3-4.5c0,0,0.1-0.1,0-0.1l-12.8-16c0-0.1,0-0.1,0.1-0.1l16,12.8c0,0,0.1,0,0.1,0l4.4-38.7
	C396.9,381.8,397,381.8,397,381.8z"/>
<g id="XMLID_00000161631830408584125590000006095685681978543507_">
	<g>
		<path class="st0" d="M716.1,278.8c3.5,0.8,4.4,5.3,1.5,7.4c-85.3,62.9-170.7,125.7-256.1,188.6c-1,0.7-2.1,0.2-2.5-0.7
			c9.6-12.9,15.3-29,15.3-46.3c0-11.2-2.4-21.9-6.7-31.5c0.1-0.3,0.3-0.5,0.5-0.6c16.7-12.3,131.6-97.1,179-132.1
			c0.4-0.3,0.9-0.4,1.4-0.3L716.1,278.8z"/>
		<path class="st0" d="M304.7,179.8c28.1-10.2,75-22,131.6-13.1c38.8,6.1,69,19.8,88.9,31.1c41.7,23.7,67.7,53.5,81.6,72.2
			c0.7,1,0.5,2.4-0.5,3.1c-18.6,13.5-37.1,26.9-55.7,40.4c-1,0.7-2.3,0.5-3.1-0.4c-11.4-14.9-33.3-39.1-68.3-56.1
			c-71.5-34.7-139.3-11.2-149.6-7.4c-18.1,6.6-66.1,27.3-97.8,80c-36.5,60.7-26,121.7-22.5,137.9c0.1,0.5,0,1-0.2,1.4
			c-24.5,2-49.1,3.9-73.6,5.9l-0.4,0.1c-1-5.2-1.9-10.7-2.6-16.4c-1-8.2-4.3-38.5,3-77c9.1-48.6,30.1-85.2,46-107.7
			c0.7-1,2.1-1.2,3.1-0.5c12.4,9.4,29.2,9,39.7,0.1c12.5-10.7,14.1-31.8,1.6-45.7c-0.8-0.9-0.7-2.4,0.3-3.2
			c15.8-12.9,40.4-30.1,73.7-42.9C301.5,181,303.1,180.4,304.7,179.8z"/>
		<path class="st0" d="M467.6,397.6c2.9,7.3,7.1,20.7,5.4,37.3c-1.6,16.4-8.1,29.1-13.9,37.5c-0.4,0.6-0.4,1.2-0.1,1.7
			c-14.2,19-36.8,31.3-62.4,31.3c-27.7,0-52.1-14.5-65.8-36.4c0-0.1,0-0.1,0-0.2c-3.3-9.3-7.5-25.6-5.6-45.8
			c2.6-26.5,14.5-45.2,20.9-53.8c0.1-0.1,0-0.3-0.1-0.3c13.6-11.8,31.3-18.9,50.7-18.9c31.7,0,58.9,19,71,46.2
			C467.5,396.7,467.5,397.1,467.6,397.6z M458.5,428.2c0-34-27.5-61.5-61.5-61.5s-61.5,27.5-61.5,61.5s27.5,61.5,61.5,61.5
			S458.5,462.2,458.5,428.2z"/>
		<path class="st0" d="M473.1,434.9c1.6-16.6-2.5-30-5.4-37.3c-0.2-0.4-0.2-0.9,0-1.3c4.3,9.6,6.7,20.3,6.7,31.5
			c0,17.4-5.7,33.4-15.3,46.3c-0.2-0.5-0.2-1.1,0.1-1.7C465,464,471.5,451.3,473.1,434.9z"/>
		<path class="st0" d="M345.9,368.9c0.1,0,0.2,0.2,0.1,0.3c-6.4,8.6-18.3,27.3-20.9,53.8c-1.9,20.2,2.3,36.4,5.6,45.8
			c0,0,0,0.1,0,0.2c-1.9-3.1-3.6-6.3-5.1-9.7l0.3-0.2c-2.7-6.3-6.3-16.9-6.7-30.4c-0.1-5.6,0.3-10.7,1-15.1
			C323.5,395.9,332.8,380.2,345.9,368.9z"/>
		<path class="st0" d="M345.8,369c0.1,0,0.1,0,0.2,0c-13.1,11.3-22.4,26.9-25.7,44.7c0.9-5.5,2.2-10.1,3.4-13.6L94.4,569.4
			l58.7,18.1l172.6-128.2c1.5,3.4,3.2,6.6,5.1,9.7c0.1,0.4-0.1,0.8-0.4,1.1L156.8,600.5c-0.3,0.2-0.7,0.3-1,0.2l-85-26.2
			c-0.9-0.3-1.1-1.5-0.4-2l138-102.3L345.8,369z"/>
		<path class="st0" d="M325.9,459.2l-0.3,0.2c-4.3-9.6-6.7-20.3-6.7-31.6c0-4.8,0.4-9.6,1.3-14.1c-0.7,4.5-1.1,9.6-1,15.1
			C319.6,442.3,323.2,452.8,325.9,459.2z"/>
		<path class="st0" d="M135.6,474.9c24.5-2,49.1-3.9,73.6-5.9c-0.2,0.3-0.4,0.6-0.7,0.8c-19.8,14.6-39.6,29.2-59.4,43.9
			c-1.2,0.9-2.9,0.4-3.4-1c-3.7-10.1-7.6-22.8-10.5-37.7L135.6,474.9z"/>
	</g>
</g>
<path class="st0" d="M364.4,497.4c-7.1-3.2-19.8-7.6-35.9-7.3c-18.2,0.3-31.9,6.5-39,10.4l42.3-33.3L364.4,497.4z"/>
<g>
	<path class="st0" d="M512.1,366.4c0.1-0.1,0.2-0.1,0.3-0.2c0.1-0.1,0-0.3-0.1-0.3c-0.1,0-0.1,0-0.2,0c-0.3,0-0.5,0.1-0.8,0.2
		c0.3-0.1,0.5-0.3,0.8-0.4"/>
</g>
<line class="st0" x1="435" y1="493.8" x2="524" y2="575.9"/>
<path class="st0" d="M264.3,516.7c4.8-4.4,9.6-8.7,14.4-13.1c5.2,7.5,37.6,52.8,98.2,60.8c56.5,7.5,97-22.7,104.9-28.9
	c4.6,4.5,9.2,9,13.8,13.5c-8.1,6.7-54.3,43.6-120.1,35.4C306.9,575.9,270.1,525.1,264.3,516.7z"/>
<path class="st0" d="M550.6,313.6c18.6-13.5,37.1-26.9,55.7-40.4c1-0.7,1.2-2.1,0.5-3.1c-14-18.8-40-48.6-81.6-72.3
	c-19.8-11.3-50.1-25-88.9-31.1c-59.9-9.4-109,4.3-136.3,14.8c-33.4,12.8-57.9,30-73.7,42.9c-1,0.8-1.1,2.2-0.2,3.2
	c12.5,14,10.9,35.1-1.6,45.8c-10.5,9-27.3,9.3-39.7-0.1c-1-0.8-2.4-0.5-3.1,0.5c-15.9,22.5-36.9,59.1-46,107.7
	c-7.2,38.5-4,68.8-3,77c2.7,22.1,8,40.4,13,54.1c0.5,1.4,2.2,1.9,3.4,1c19.8-14.6,39.6-29.2,59.4-43.9c0.7-0.5,1-1.4,0.9-2.2
	c-3.5-16.2-14-77.1,22.5-137.9c31.7-52.7,79.7-73.4,97.8-80c10.3-3.8,78.1-27.3,149.6,7.4c35,17,56.9,41.2,68.3,56.1
	C548.3,314.1,549.7,314.3,550.6,313.6z"/>
<path class="st0" d="M548.7,315.3c19.8-14.3,39.5-28.6,59.3-43c-13.6-18.6-39.9-49.6-83-74.1c-19.8-11.3-50.1-25-88.9-31.1
	c-59.9-9.4-109,4.3-136.3,14.8c-34.7,13.3-59.9,31.4-75.6,44.4c14.2,13.9,13,36.3,0,47.4c-11,9.4-29,9.3-41.5-1.5
	c-16,22.4-38,59.7-47.4,109.6c-7.2,38.5-4,68.8-3,77c2.9,23.6,8.8,42.9,14.1,56.8c21-15.5,42-31,63-46.5
	c-3.1-13.8-15.5-76.6,22.2-139.3c31.7-52.7,79.7-73.4,97.8-80c10.3-3.8,78.1-27.3,149.6,7.4C515.5,275.2,537.7,300.6,548.7,315.3z"
	/>
<path class="st0" d="M212.5,482.3c1.9,7,4.5,15.1,8.4,23.9c3.9,8.7,8.1,16.2,12,22.3c-19.9,14.7-39.8,29.4-59.7,44.1
	c-4.3-7-8.8-14.7-13.1-23.1c-3.9-7.7-7.3-15.1-10.2-22C170.7,512.4,191.6,497.3,212.5,482.3z"/>
<path class="st0" d="M224.1,226.6c1.4,2.9,4.1,9.7,3.2,18.4c-1.2,12.3-8.8,19.8-10.8,21.7c-2.2,2-7.6,6.3-15.8,7.8
	c-7.9,1.4-14.2-0.5-16.9-1.6c2.5,1.6,9,4.7,17.4,2.9c8.4-1.8,14.1-5.8,16.1-7.7c2.3-2.1,6.5-6.1,9.1-12.7c3.3-8.7,2.4-16.6,2-18.5
	C227.7,232.3,225.4,228.9,224.1,226.6z"/>
<path class="st0" d="M476.4,175.8C449.9,147.9,423.5,120,397,92c-1.5-1.6-4.1-1.6-5.6,0c-26.3,28.1-52.5,56.3-78.8,84.4
	c-2.7,2.9,0.2,7.5,4,6.2c20-6.7,48.2-13.3,82-12.9c30,0.4,55.2,6.2,73.8,12.3C476.2,183.3,479.1,178.7,476.4,175.8z M394.5,122.9
	c-6.6,0-12-5.4-12-12s5.4-12,12-12s12,5.4,12,12S401.1,122.9,394.5,122.9z"/>
<path class="st0" d="M379.5,619.7l17.6,18.5l18.5-18.5c28.7-3.2,82.3-15.5,124.4-63.4c53.1-60.3,47.8-131.6,46.1-146.7
	c-0.1-0.9,0.3-1.7,1-2.2l61.1-44.4c1.4-1,3.4-0.3,3.8,1.4c6.1,24.5,24.5,116.5-30.5,205.4c-74.5,120.2-215.7,125-225.9,125.2
	c-24.1-0.2-71.2-3.8-122.2-30.4c-53.9-28.1-84.8-67.4-98.9-88.4c-0.7-1.1-0.5-2.6,0.6-3.3c18.6-13.8,37.2-27.6,55.8-41.4
	c1.1-0.8,2.7-0.6,3.5,0.6c10.5,15.5,31.1,41.3,65.7,61.4c22.2,12.9,43.7,19.8,61.7,23.4"/>
<path class="st0" d="M224.9,227.7c1.4,2.9,4.2,9.6,3.3,18.3c-1.3,12.3-9,19.7-11,21.6c-2.2,2-7.7,6.3-16.1,7.8
	c-8,1.4-14.5-0.5-17.3-1.6c2.5,1.6,9.2,4.7,17.8,2.9c8.6-1.8,14.4-5.8,16.4-7.6c2.3-2.1,6.7-6.1,9.2-12.6c3.4-8.6,2.4-16.5,2.1-18.4
	C228.5,233.3,226.2,229.9,224.9,227.7z"/>
<path class="st0" d="M224,226.6c1.4,2.9,4.2,9.6,3.3,18.2c-1.3,12.2-9,19.6-11.1,21.4c-2.3,2-7.8,6.3-16.2,7.7
	c-8.1,1.4-14.6-0.5-17.4-1.6c2.5,1.6,9.3,4.7,17.9,2.9c8.7-1.8,14.5-5.7,16.6-7.6c2.4-2.1,6.7-6.1,9.3-12.5
	c3.4-8.6,2.4-16.4,2.1-18.3C227.6,232.2,225.3,228.9,224,226.6z"/>
</svg>
